<?xml version="1.0" encoding="utf-8"?>
<!-- Generator: Adobe Illustrator 16.0.0, SVG Export Plug-In . SVG Version: 6.00 Build 0)  -->
<!DOCTYPE svg PUBLIC "-//W3C//DTD SVG 1.1//EN" "http://www.w3.org/Graphics/SVG/1.1/DTD/svg11.dtd">
<svg version="1.1" xmlns="http://www.w3.org/2000/svg" xmlns:xlink="http://www.w3.org/1999/xlink" x="0px" y="0px"
	 width="420.619px" height="420.618px" viewBox="0 0 420.619 420.618" enable-background="new 0 0 420.619 420.618"
	 xml:space="preserve">
<g id="Layer_1">
	<path fill="#7F7F7F" stroke="#666666" stroke-miterlimit="10" d="M270.847,272.567c-4.377-8.275-10.077-16.547-17.359-22.529
		c-4.354-3.577-9.493-6.358-14.953-8.534c-1.258-28.206-2.327-56.425-2.353-84.663c-0.001-1.696-4.001-1.695-4,0
		c0.025,27.74,1.07,55.458,2.291,83.167c-6.716-2.261-13.743-3.698-20.305-4.595c-7.068-0.965-14.257-1.157-21.387-0.597
		c-0.31-13.586-0.625-27.168-0.893-40.761c13.923-15.866,26.075-33.022,32.434-54.143c5.302-17.61,7.115-38.055,3.386-56.181
		c-1.46-7.098-4.278-14.355-10.439-18.616c-4.692-3.245-12.01-3.765-17.08-1.125c-11.46,5.967-12.588,23.329-13.276,34.561
		c-0.934,15.24,0.228,30.643,0.302,45.901c0.08,16.428,0.331,32.854,0.653,49.278c-11.025,12.523-22.974,24.238-34.246,36.55
		c0.278-25.015-0.325-50.046-2.937-74.939c-0.18-1.717-4.172-1.637-4,0c2.77,26.398,3.253,52.93,2.866,79.447
		c-1.04,1.171-2.073,2.348-3.095,3.533c-14.951,17.334-28.626,38.608-30.917,61.88c-0.989,10.042,1.127,20.391,6.524,28.944
		c2.646,4.193,6.407,8.127,11.74,7.504c4.505-0.526,7.325-5.344,9.143-8.957c3.27-6.502,4.952-13.849,6.407-20.934
		c4.064-19.795,3.5-40.4,3.985-60.496c0.089-3.703,0.164-7.407,0.222-11.111c11.023-12.668,23.147-24.288,34.399-36.687
		c0.25,12.28,0.536,24.512,0.818,36.742c-6.843,0.815-13.598,2.331-20.101,4.56c-2.485,0.851,0.369,2.706,2.019,2.141
		c5.846-2.002,11.942-3.146,18.14-3.938c0.689,29.945,1.336,59.778,1.35,90.778c0.001,1,4.001,1,4,0
		c-0.014-31-0.659-60.979-1.346-91.208c14.137-1.203,28.633,0.615,41.774,5.783c0.188,4.213,0.378,8.363,0.57,12.576
		c0.265,5.83-0.556,11.795-0.823,17.618c-0.363,7.894-0.472,15.796,0.131,23.681c0.859,11.228,3.469,27.006,16.57,29.768
		c14.96,3.153,27.8-10.224,28.398-24.238C279.903,292.257,275.647,281.644,270.847,272.567z M149.19,252.069
		c-0.542,20.535-0.28,41.167-5.328,61.212c-1.642,6.52-3.696,14.167-8.378,19.23c-5.853,6.33-12.053-8.094-13.529-11.983
		c-9.148-24.098,5.508-51.129,19.389-70.18c2.589-3.554,5.309-7.01,8.122-10.396C149.391,243.992,149.297,248.031,149.19,252.069z
		 M191.742,89.561c0.909-7.138,2.537-15.14,7.333-20.771c5.262-6.179,14.001-4.405,18.838,1.291
		c5.708,6.72,6.777,17.122,7.347,25.537c0.539,7.953,0.152,15.978-0.775,23.887c-2.938,25.072-14.162,47.114-29.997,66.453
		c-0.887,1.083-1.784,2.157-2.688,3.226c-0.354-18.778-0.609-37.557-0.618-56.34C191.176,118.36,189.902,104.008,191.742,89.561z
		 M270.432,317.102c-4.695,5.722-14.743,10.124-21.729,6.167c-5.713-3.235-7.833-11.021-9.02-16.973
		c-1.539-7.713-1.688-15.705-1.606-23.544c0.133-12.728,0.944-25.147,0.57-37.849c3.678,1.672,7.233,3.604,10.619,5.81
		c6.307,4.109,11.188,11.604,15.055,17.856c4.796,7.756,8.609,16.371,10.378,25.343
		C276.268,301.871,275.756,310.613,270.432,317.102z"/>
	<path fill="#87FFFA" stroke="#87FFFA" stroke-miterlimit="10" d="M154.176,116.951c-1.39-5.075-5.863-8.858-11.035-9.307
		c0.638-1.295-2.699-1.958-3.683-0.926c-3.81,3.999-6.278,9.521-4.841,15.06c1.52,5.86,8.852,7.058,13.895,6.112
		C153.993,126.862,155.499,121.78,154.176,116.951z M146.654,125.647c-4.836,0.907-8.3-2.269-8.505-6.906
		c-0.144-3.263,1.302-6.446,3.282-9.036c0.301,0.206,0.716,0.353,1.255,0.379C149.211,110.396,155.046,124.074,146.654,125.647z"/>
</g>
<g id="Layer_1_copy">
	<path fill="#7F7F7F" stroke="#666666" stroke-miterlimit="10" d="M273.101,272.567c-4.377-8.275-10.077-16.547-17.359-22.529
		c-4.354-3.576-9.493-6.357-14.953-8.533c-1.258-28.207-2.327-56.426-2.353-84.664c-0.001-1.696-4.001-1.695-4,0
		c0.025,27.74,1.07,55.458,2.291,83.168c-6.716-2.262-13.743-3.699-20.305-4.596c-7.068-0.965-14.257-1.156-21.387-0.596
		c-0.31-13.587-0.625-27.169-0.893-40.762c13.923-15.866,26.075-33.022,32.434-54.143c5.302-17.61,7.115-38.055,3.386-56.181
		c-1.46-7.098-4.278-14.355-10.439-18.616c-4.692-3.245-12.01-3.765-17.08-1.125c-11.46,5.967-12.588,23.329-13.276,34.561
		c-0.934,15.24,0.228,30.643,0.302,45.901c0.08,16.428,0.331,32.854,0.653,49.278c-11.025,12.523-22.974,24.238-34.246,36.55
		c0.278-25.015-0.325-50.046-2.937-74.939c-0.18-1.717-4.172-1.637-4,0c2.77,26.398,3.253,52.93,2.866,79.447
		c-1.04,1.172-2.073,2.348-3.095,3.533c-14.951,17.334-28.626,38.609-30.917,61.881c-0.989,10.041,1.127,20.391,6.524,28.943
		c2.646,4.193,6.407,8.127,11.74,7.504c4.505-0.525,7.325-5.344,9.143-8.957c3.27-6.502,4.952-13.848,6.407-20.934
		c4.064-19.795,3.5-40.4,3.985-60.496c0.089-3.703,0.164-7.406,0.222-11.111c11.023-12.668,23.147-24.288,34.399-36.687
		c0.25,12.28,0.536,24.512,0.818,36.743c-6.843,0.814-13.598,2.33-20.101,4.559c-2.485,0.852,0.369,2.707,2.019,2.141
		c5.846-2.002,11.942-3.146,18.14-3.938c0.689,29.945,1.336,59.777,1.35,90.777c0.001,1,4.001,1,4,0
		c-0.014-31-0.659-60.979-1.346-91.207c14.137-1.203,28.633,0.615,41.774,5.783c0.188,4.213,0.378,8.363,0.57,12.576
		c0.265,5.83-0.556,11.795-0.823,17.617c-0.363,7.895-0.472,15.797,0.131,23.682c0.859,11.227,3.469,27.006,16.57,29.768
		c14.96,3.152,27.8-10.225,28.398-24.238C282.157,292.257,277.901,281.644,273.101,272.567z M151.444,252.069
		c-0.542,20.535-0.28,41.168-5.328,61.213c-1.642,6.52-3.696,14.166-8.378,19.23c-5.853,6.33-12.053-8.094-13.529-11.984
		c-9.148-24.098,5.508-51.129,19.389-70.18c2.589-3.553,5.309-7.01,8.122-10.396C151.645,243.993,151.551,248.032,151.444,252.069z
		 M193.996,89.561c0.909-7.138,2.537-15.14,7.333-20.771c5.262-6.179,14.001-4.405,18.838,1.291
		c5.708,6.72,6.777,17.122,7.347,25.537c0.539,7.953,0.152,15.978-0.775,23.887c-2.938,25.072-14.162,47.114-29.997,66.453
		c-0.887,1.083-1.784,2.157-2.688,3.226c-0.354-18.778-0.609-37.557-0.618-56.34C193.43,118.36,192.156,104.008,193.996,89.561z
		 M272.686,317.103c-4.695,5.721-14.743,10.123-21.729,6.166c-5.713-3.234-7.833-11.02-9.02-16.973
		c-1.539-7.713-1.688-15.705-1.606-23.543c0.133-12.729,0.944-25.148,0.57-37.85c3.678,1.672,7.233,3.604,10.619,5.811
		c6.307,4.109,11.188,11.604,15.055,17.855c4.796,7.756,8.609,16.371,10.378,25.344C278.522,301.872,278.01,310.614,272.686,317.103
		z"/>
	<path fill="#87FFFA" stroke="#87FFFA" stroke-miterlimit="10" d="M157.732,116.951c-1.39-5.075-5.863-8.858-11.035-9.307
		c0.638-1.295-2.699-1.958-3.683-0.926c-3.81,3.999-6.278,9.521-4.841,15.06c1.52,5.86,8.852,7.058,13.895,6.112
		C157.549,126.862,159.054,121.78,157.732,116.951z M150.209,125.647c-4.836,0.907-8.3-2.269-8.505-6.906
		c-0.144-3.263,1.302-6.446,3.282-9.036c0.301,0.206,0.716,0.353,1.255,0.379C152.767,110.396,158.602,124.074,150.209,125.647z"/>
</g>
<g id="Layer_1_copy_2">
	<path fill="#7F7F7F" stroke="#666666" stroke-miterlimit="10" d="M268.536,272.567c-4.377-8.275-10.077-16.547-17.359-22.529
		c-4.354-3.576-9.493-6.357-14.953-8.533c-1.258-28.207-2.327-56.426-2.353-84.664c-0.001-1.696-4.001-1.695-4,0
		c0.025,27.74,1.07,55.458,2.291,83.168c-6.716-2.262-13.743-3.699-20.305-4.596c-7.068-0.965-14.257-1.156-21.387-0.596
		c-0.366-16.048-0.603-26.062-0.893-40.762c13.923-15.866,26.075-33.022,32.434-54.143c5.302-17.61,7.115-38.055,3.386-56.181
		c-1.46-7.098-4.278-14.355-10.439-18.616c-4.692-3.245-12.01-3.765-17.08-1.125c-11.46,5.967-12.588,23.329-13.276,34.561
		c-0.934,15.24,0.228,30.643,0.302,45.901c0.08,16.428,0.331,32.854,0.653,49.278c-11.025,12.524-22.974,24.237-34.246,36.55
		c0.278-25.014-0.325-50.046-2.937-74.939c-0.18-1.717-4.172-1.637-4,0c2.77,26.398,3.253,52.93,2.866,79.447
		c-1.04,1.172-2.073,2.348-3.095,3.533c-14.951,17.334-28.626,38.609-30.917,61.881c-0.989,10.041,1.127,20.391,6.524,28.943
		c2.646,4.193,6.407,8.127,11.74,7.504c4.505-0.525,7.325-5.344,9.143-8.957c3.27-6.502,4.952-13.848,6.407-20.934
		c4.064-19.795,3.5-40.4,3.985-60.496c0.089-3.703,0.164-7.406,0.222-11.111c11.023-12.668,23.147-24.288,34.399-36.687
		c0.25,12.28,0.536,24.513,0.818,36.743c-6.843,0.814-13.598,2.33-20.101,4.559c-2.485,0.852,0.369,2.707,2.019,2.141
		c5.846-2.002,11.942-3.646,18.14-4.437c0.689,29.945,1.336,59.276,1.35,90.276c0.001,1,4.001,1,4,0
		c-0.014-31-0.659-60.478-1.346-90.706c14.137-1.203,28.633,0.864,41.774,6.032c0.188,4.213,0.378,8.488,0.57,12.701
		c0.265,5.83-0.556,11.857-0.823,17.68c-0.363,7.895-0.472,15.829,0.131,23.714c0.859,11.227,3.469,27.02,16.57,29.781
		c14.96,3.152,27.8-10.218,28.398-24.231C277.592,292.247,273.336,281.644,268.536,272.567z M146.879,252.069
		c-0.542,20.535-0.28,41.168-5.328,61.213c-1.642,6.52-3.696,14.166-8.378,19.23c-5.853,6.33-12.053-8.094-13.529-11.984
		c-9.148-24.098,5.508-51.129,19.389-70.18c2.589-3.553,5.309-7.01,8.122-10.396C147.08,243.993,146.986,248.032,146.879,252.069z
		 M189.431,89.561c0.909-7.138,2.537-15.14,7.333-20.771c5.262-6.179,14.001-4.405,18.838,1.291
		c5.708,6.72,6.777,17.122,7.347,25.537c0.539,7.953,0.152,15.978-0.775,23.887c-2.938,25.072-14.162,47.114-29.997,66.453
		c-0.887,1.083-1.784,2.157-2.688,3.226c-0.354-18.778-0.609-37.557-0.618-56.34C188.865,118.36,187.591,104.008,189.431,89.561z
		 M268.121,317.103c-4.695,5.721-14.743,10.123-21.729,6.166c-5.713-3.234-7.833-11.02-9.02-16.973
		c-1.539-7.713-1.688-15.705-1.606-23.543c0.133-12.729,0.944-25.148,0.57-37.85c3.678,1.672,7.233,3.604,10.619,5.811
		c6.307,4.109,11.188,11.604,15.055,17.855c4.796,7.756,8.609,16.371,10.378,25.344
		C273.957,301.872,273.445,310.614,268.121,317.103z"/>
	<path fill="#87FFFA" stroke="#87FFFA" stroke-miterlimit="10" d="M151.616,116.951c-1.39-5.075-5.863-8.858-11.035-9.307
		c0.638-1.295-2.699-1.958-3.683-0.926c-3.81,3.999-6.278,9.521-4.841,15.06c1.52,5.86,8.852,7.058,13.895,6.112
		C151.433,126.862,152.938,121.78,151.616,116.951z M144.093,125.647c-4.836,0.907-8.3-2.269-8.505-6.906
		c-0.144-3.263,1.302-6.446,3.282-9.036c0.301,0.206,0.716,0.353,1.255,0.379C146.651,110.396,152.485,124.074,144.093,125.647z"/>
</g>
</svg>
