<?xml version="1.0" encoding="utf-8"?>
<!-- Generator: Adobe Illustrator 16.0.0, SVG Export Plug-In . SVG Version: 6.00 Build 0)  -->
<!DOCTYPE svg PUBLIC "-//W3C//DTD SVG 1.1//EN" "http://www.w3.org/Graphics/SVG/1.1/DTD/svg11.dtd">
<svg version="1.1" id="Layer_1" xmlns="http://www.w3.org/2000/svg" xmlns:xlink="http://www.w3.org/1999/xlink" x="0px" y="0px"
	 width="100px" height="100px" viewBox="0 0 100 100" enable-background="new 0 0 100 100" xml:space="preserve">
<g>
	<g>
		<path fill="#7F7F7F" d="M81.602,44.102H14.762c-3.256,0-5.898,2.64-5.898,5.898s2.642,5.898,5.898,5.898h66.839
			c3.256,0,5.898-2.641,5.898-5.898S84.857,44.102,81.602,44.102z M81.602,67.693H14.762c-3.256,0-5.898,2.64-5.898,5.897
			c0,3.259,2.642,5.898,5.898,5.898h66.839c3.256,0,5.898-2.64,5.898-5.898C87.5,70.333,84.857,67.693,81.602,67.693z
			 M14.763,32.307h66.84c3.256,0,5.897-2.64,5.897-5.898c0-3.258-2.642-5.898-5.897-5.898h-66.84c-3.256,0-5.898,2.64-5.898,5.898
			C8.865,29.667,11.507,32.307,14.763,32.307z"/>
	</g>
</g>
</svg>
